<svg width="22" height="22" viewBox="0 0 22 22" fill="none" xmlns="http://www.w3.org/2000/svg">
<path d="M9.5 12.5H2C1.575 12.5 1.21875 12.3563 0.93125 12.0688C0.64375 11.7813 0.5 11.425 0.5 11C0.5 10.575 0.64375 10.2187 0.93125 9.93125C1.21875 9.64375 1.575 9.5 2 9.5H9.5V2C9.5 1.575 9.64375 1.21875 9.93125 0.93125C10.2187 0.64375 10.575 0.5 11 0.5C11.425 0.5 11.7813 0.64375 12.0688 0.93125C12.3563 1.21875 12.5 1.575 12.5 2V9.5H20C20.425 9.5 20.7813 9.64375 21.0688 9.93125C21.3563 10.2187 21.5 10.575 21.5 11C21.5 11.425 21.3563 11.7813 21.0688 12.0688C20.7813 12.3563 20.425 12.5 20 12.5H12.5V20C12.5 20.425 12.3563 20.7813 12.0688 21.0688C11.7813 21.3563 11.425 21.5 11 21.5C10.575 21.5 10.2187 21.3563 9.93125 21.0688C9.64375 20.7813 9.5 20.425 9.5 20V12.5Z" fill="#515151"/>
</svg>
