<svg width="36" height="36" viewBox="0 0 36 36" fill="none"  xmlns="http://www.w3.org/2000/svg">
<mask id="mask0_645_2444" style="mask-type:alpha" maskUnits="userSpaceOnUse" x="0" y="0" width="36" height="36">
<rect width="36" height="36" fill="#D9D9D9"/>
</mask>
<g mask="url(#mask0_645_2444)">
<path d="M16.5 19.5H9C8.575 19.5 8.21875 19.3563 7.93125 19.0688C7.64375 18.7813 7.5 18.425 7.5 18C7.5 17.575 7.64375 17.2187 7.93125 16.9312C8.21875 16.6437 8.575 16.5 9 16.5H16.5V9C16.5 8.575 16.6437 8.21875 16.9312 7.93125C17.2187 7.64375 17.575 7.5 18 7.5C18.425 7.5 18.7813 7.64375 19.0688 7.93125C19.3563 8.21875 19.5 8.575 19.5 9V16.5H27C27.425 16.5 27.7813 16.6437 28.0688 16.9312C28.3563 17.2187 28.5 17.575 28.5 18C28.5 18.425 28.3563 18.7813 28.0688 19.0688C27.7813 19.3563 27.425 19.5 27 19.5H19.5V27C19.5 27.425 19.3563 27.7813 19.0688 28.0688C18.7813 28.3563 18.425 28.5 18 28.5C17.575 28.5 17.2187 28.3563 16.9312 28.0688C16.6437 27.7813 16.5 27.425 16.5 27V19.5Z" fill="#333333"/>
</g>
</svg>
