<svg width="16" height="16" viewBox="0 0 16 16" fill="none" xmlns="http://www.w3.org/2000/svg">
<path d="M3.37491 8.7481L8.54416 13.9174C8.69282 14.066 8.76624 14.24 8.76441 14.4394C8.76241 14.6387 8.68391 14.8159 8.52891 14.9711C8.37374 15.1159 8.19807 15.1909 8.00191 15.1961C7.80574 15.2013 7.63007 15.1263 7.47491 14.9711L1.13466 8.63085C1.04099 8.53718 0.97499 8.43843 0.936656 8.3346C0.898156 8.23077 0.878906 8.1186 0.878906 7.9981C0.878906 7.8776 0.898156 7.76543 0.936656 7.6616C0.97499 7.55777 1.04099 7.45902 1.13466 7.36535L7.47491 1.0251C7.61341 0.886602 7.78491 0.815768 7.98941 0.812602C8.19391 0.809435 8.37374 0.880268 8.52891 1.0251C8.68391 1.18027 8.76141 1.35844 8.76141 1.5596C8.76141 1.76094 8.68391 1.93918 8.52891 2.09435L3.37491 7.2481H14.7519C14.9647 7.2481 15.1429 7.31993 15.2864 7.4636C15.4301 7.6071 15.5019 7.78527 15.5019 7.9981C15.5019 8.21093 15.4301 8.3891 15.2864 8.5326C15.1429 8.67627 14.9647 8.7481 14.7519 8.7481H3.37491Z" fill="#EEEEEE"/>
</svg>
