<svg width="20" height="20" viewBox="0 0 20 20" fill="none" xmlns="http://www.w3.org/2000/svg">
<g id="Icons / article">
<mask id="mask0_479_4037" style="mask-type:alpha" maskUnits="userSpaceOnUse" x="0" y="0" width="20" height="20">
<rect id="Bounding box" width="20" height="20" fill="#D9D9D9"/>
</mask>
<g mask="url(#mask0_479_4037)">
<path id="article" d="M4.42443 17.0807C4.00345 17.0807 3.64714 16.9349 3.35547 16.6432C3.0638 16.3516 2.91797 15.9952 2.91797 15.5743V4.42052C2.91797 3.99955 3.0638 3.64323 3.35547 3.35156C3.64714 3.0599 4.00345 2.91406 4.42443 2.91406H15.5782C15.9992 2.91406 16.3555 3.0599 16.6471 3.35156C16.9388 3.64323 17.0846 3.99955 17.0846 4.42052V15.5743C17.0846 15.9952 16.9388 16.3516 16.6471 16.6432C16.3555 16.9349 15.9992 17.0807 15.5782 17.0807H4.42443ZM4.42443 15.8307H15.5782C15.6423 15.8307 15.7011 15.804 15.7544 15.7505C15.8079 15.6972 15.8346 15.6384 15.8346 15.5743V4.42052C15.8346 4.35635 15.8079 4.2976 15.7544 4.24427C15.7011 4.1908 15.6423 4.16406 15.5782 4.16406H4.42443C4.36026 4.16406 4.30151 4.1908 4.24818 4.24427C4.19471 4.2976 4.16797 4.35635 4.16797 4.42052V15.5743C4.16797 15.6384 4.19471 15.6972 4.24818 15.7505C4.30151 15.804 4.36026 15.8307 4.42443 15.8307ZM6.66797 13.9557H10.8346C11.012 13.9557 11.1605 13.8959 11.2801 13.7761C11.3998 13.6566 11.4596 13.5081 11.4596 13.3307C11.4596 13.1534 11.3998 13.0049 11.2801 12.8853C11.1605 12.7656 11.012 12.7057 10.8346 12.7057H6.66797C6.49061 12.7057 6.34214 12.7656 6.22255 12.8853C6.10283 13.0049 6.04297 13.1534 6.04297 13.3307C6.04297 13.5081 6.10283 13.6566 6.22255 13.7761C6.34214 13.8959 6.49061 13.9557 6.66797 13.9557ZM6.66797 10.6224H13.3346C13.512 10.6224 13.6605 10.5625 13.7801 10.4428C13.8998 10.3232 13.9596 10.1748 13.9596 9.9974C13.9596 9.82004 13.8998 9.67156 13.7801 9.55198C13.6605 9.43226 13.512 9.3724 13.3346 9.3724H6.66797C6.49061 9.3724 6.34214 9.43226 6.22255 9.55198C6.10283 9.67156 6.04297 9.82004 6.04297 9.9974C6.04297 10.1748 6.10283 10.3232 6.22255 10.4428C6.34214 10.5625 6.49061 10.6224 6.66797 10.6224ZM6.66797 7.28906H13.3346C13.512 7.28906 13.6605 7.2292 13.7801 7.10948C13.8998 6.9899 13.9596 6.84142 13.9596 6.66406C13.9596 6.4867 13.8998 6.33823 13.7801 6.21865C13.6605 6.09892 13.512 6.03906 13.3346 6.03906H6.66797C6.49061 6.03906 6.34214 6.09892 6.22255 6.21865C6.10283 6.33823 6.04297 6.4867 6.04297 6.66406C6.04297 6.84142 6.10283 6.9899 6.22255 7.10948C6.34214 7.2292 6.49061 7.28906 6.66797 7.28906Z" fill="#E3E3E3"/>
</g>
</g>
</svg>
