<svg width="20" height="20" viewBox="0 0 20 20" fill="none" xmlns="http://www.w3.org/2000/svg">
<g id="icons / campaign">
<mask id="mask0_479_4043" style="mask-type:alpha" maskUnits="userSpaceOnUse" x="0" y="0" width="20" height="20">
<rect id="Bounding box" width="20" height="20" fill="#D9D9D9"/>
</mask>
<g mask="url(#mask0_479_4043)">
<path id="campaign" d="M17.3562 10.6282H15.5933C15.4159 10.6282 15.2674 10.5683 15.1479 10.4486C15.0281 10.329 14.9683 10.1806 14.9683 10.0032C14.9683 9.82584 15.0281 9.67737 15.1479 9.55779C15.2674 9.43806 15.4159 9.3782 15.5933 9.3782H17.3562C17.5336 9.3782 17.682 9.43806 17.8016 9.55779C17.9213 9.67737 17.9812 9.82584 17.9812 10.0032C17.9812 10.1806 17.9213 10.329 17.8016 10.4486C17.682 10.5683 17.5336 10.6282 17.3562 10.6282ZM13.8897 13.9311C13.9965 13.7847 14.1331 13.7003 14.2993 13.6778C14.4654 13.6554 14.6217 13.6976 14.7681 13.8045L16.1735 14.8605C16.3199 14.9674 16.4043 15.104 16.4266 15.2701C16.4491 15.4362 16.4069 15.5924 16.2999 15.7388C16.1931 15.8851 16.0567 15.9695 15.8906 15.992C15.7245 16.0145 15.5682 15.9722 15.4218 15.8653L14.0164 14.8092C13.87 14.7024 13.7856 14.566 13.7633 14.3999C13.7408 14.2338 13.7829 14.0775 13.8897 13.9311ZM16.1414 5.11383L14.736 6.16987C14.5896 6.27667 14.4334 6.3189 14.2672 6.29654C14.1011 6.27404 13.9646 6.18959 13.8577 6.0432C13.7509 5.89695 13.7087 5.7407 13.7312 5.57445C13.7536 5.40834 13.8379 5.27188 13.9843 5.16508L15.3897 4.10904C15.5361 4.00223 15.6924 3.96001 15.8585 3.98237C16.0246 4.00487 16.1611 4.08924 16.2681 4.23549C16.3749 4.38188 16.417 4.53813 16.3945 4.70424C16.3722 4.87049 16.2878 5.00702 16.1414 5.11383ZM4.37536 12.1507H3.52599C3.11043 12.1507 2.7555 12.0035 2.4612 11.709C2.16675 11.4147 2.01953 11.0598 2.01953 10.6442V9.36216C2.01953 8.94661 2.16675 8.59167 2.4612 8.29737C2.7555 8.00292 3.11043 7.8557 3.52599 7.8557H6.74724L9.33849 6.30612C9.5896 6.15542 9.8428 6.1541 10.0981 6.30216C10.3535 6.45008 10.4812 6.66772 10.4812 6.95508V13.0513C10.4812 13.3387 10.3535 13.5563 10.0981 13.7042C9.8428 13.8523 9.5896 13.851 9.33849 13.7003L6.74724 12.1507H5.62536V14.7788C5.62536 14.9562 5.5655 15.1047 5.44578 15.2242C5.3262 15.344 5.17773 15.4038 5.00036 15.4038C4.823 15.4038 4.67453 15.344 4.55495 15.2242C4.43523 15.1047 4.37536 14.9562 4.37536 14.7788V12.1507ZM9.2312 12.1572V7.84924L7.09328 9.1057H3.52599C3.46196 9.1057 3.40321 9.13244 3.34974 9.18591C3.29627 9.23938 3.26953 9.29813 3.26953 9.36216V10.6442C3.26953 10.7083 3.29627 10.767 3.34974 10.8205C3.40321 10.874 3.46196 10.9007 3.52599 10.9007H7.09328L9.2312 12.1572ZM11.6349 12.6026V7.40383C11.9619 7.6998 12.2252 8.07265 12.4249 8.52237C12.6248 8.97223 12.7247 9.46584 12.7247 10.0032C12.7247 10.5406 12.6248 11.0342 12.4249 11.484C12.2252 11.9338 11.9619 12.3066 11.6349 12.6026Z" fill="#E3E3E3"/>
</g>
</g>
</svg>
