<svg width="7" height="12" viewBox="0 0 7 12" fill="none" xmlns="http://www.w3.org/2000/svg">
<path d="M4.94577 6.00001L0.872524 1.92701C0.73419 1.78851 0.663357 1.61443 0.660023 1.40476C0.656857 1.19526 0.72769 1.01801 0.872524 0.873012C1.01752 0.728178 1.19319 0.655762 1.39952 0.655762C1.60586 0.655762 1.78152 0.728178 1.92652 0.873012L6.42077 5.36726C6.51427 5.46093 6.58027 5.55968 6.61877 5.66351C6.65727 5.76735 6.67652 5.87951 6.67652 6.00001C6.67652 6.12051 6.65727 6.23268 6.61877 6.33651C6.58027 6.44035 6.51427 6.5391 6.42077 6.63276L1.92652 11.127C1.78802 11.2653 1.61394 11.3362 1.40427 11.3395C1.19477 11.3427 1.01752 11.2718 0.872524 11.127C0.72769 10.982 0.655273 10.8063 0.655273 10.6C0.655273 10.3937 0.72769 10.218 0.872524 10.073L4.94577 6.00001Z" fill="#D1D1D1"/>
</svg>
