<svg width="20" height="20" viewBox="0 0 20 20" fill="none" xmlns="http://www.w3.org/2000/svg">
<mask id="mask0_479_4033" style="mask-type:alpha" maskUnits="userSpaceOnUse" x="0" y="0" width="20" height="20">
<rect width="20" height="20" fill="#D9D9D9"/>
</mask>
<g mask="url(#mask0_479_4033)">
<path d="M10.7903 10.0004L7.39589 6.60625C7.28061 6.49083 7.22158 6.34576 7.2188 6.17104C7.21616 5.99646 7.27519 5.84875 7.39589 5.72792C7.51672 5.60722 7.66311 5.54688 7.83505 5.54688C8.007 5.54688 8.15338 5.60722 8.27422 5.72792L12.0194 9.47313C12.0973 9.55118 12.1523 9.63347 12.1844 9.72C12.2165 9.80653 12.2326 9.9 12.2326 10.0004C12.2326 10.1008 12.2165 10.1943 12.1844 10.2808C12.1523 10.3674 12.0973 10.4497 12.0194 10.5277L8.27422 14.2729C8.1588 14.3882 8.01373 14.4472 7.83901 14.45C7.66443 14.4526 7.51672 14.3936 7.39589 14.2729C7.27519 14.1521 7.21484 14.0057 7.21484 13.8338C7.21484 13.6618 7.27519 13.5154 7.39589 13.3946L10.7903 10.0004Z" fill="#EEEEEE"/>
</g>
</svg>
