<svg width="76" height="76" viewBox="0 0 76 76" fill="none" xmlns="http://www.w3.org/2000/svg">
<rect width="76" height="76" rx="38" fill="#D1D1D1"/>
<mask id="mask0_972_1420" style="mask-type:alpha" maskUnits="userSpaceOnUse" x="12" y="12" width="52" height="52">
<rect x="12" y="12" width="52" height="52" fill="#D9D9D9"/>
</mask>
<g mask="url(#mask0_972_1420)">
<path d="M38.0003 38.0001C35.617 38.0001 33.5767 37.1515 31.8795 35.4542C30.1823 33.757 29.3337 31.7167 29.3337 29.3334C29.3337 26.9501 30.1823 24.9098 31.8795 23.2126C33.5767 21.5154 35.617 20.6667 38.0003 20.6667C40.3837 20.6667 42.4239 21.5154 44.1212 23.2126C45.8184 24.9098 46.667 26.9501 46.667 29.3334C46.667 31.7167 45.8184 33.757 44.1212 35.4542C42.4239 37.1515 40.3837 38.0001 38.0003 38.0001ZM20.667 51.0001V49.2667C20.667 48.039 20.983 46.9105 21.6149 45.8813C22.2469 44.8522 23.0864 44.0667 24.1337 43.5251C26.3725 42.4056 28.6475 41.5661 30.9587 41.0063C33.2698 40.4466 35.617 40.1667 38.0003 40.1667C40.3837 40.1667 42.7309 40.4466 45.042 41.0063C47.3531 41.5661 49.6281 42.4056 51.867 43.5251C52.9142 44.0667 53.7538 44.8522 54.3857 45.8813C55.0177 46.9105 55.3337 48.039 55.3337 49.2667V51.0001C55.3337 52.1917 54.9094 53.2119 54.0607 54.0605C53.2121 54.9091 52.192 55.3334 51.0003 55.3334H25.0003C23.8087 55.3334 22.7885 54.9091 21.9399 54.0605C21.0913 53.2119 20.667 52.1917 20.667 51.0001Z" fill="#646464"/>
</g>
</svg>
