<svg width="20" height="20" viewBox="0 0 20 20" fill="none" xmlns="http://www.w3.org/2000/svg">
<mask id="mask0_479_4189" style="mask-type:alpha" maskUnits="userSpaceOnUse" x="0" y="0" width="20" height="20">
<rect width="20" height="20" fill="#D9D9D9"/>
</mask>
<g mask="url(#mask0_479_4189)">
<path d="M4.16797 15.8307H5.21922L13.7496 7.30031L12.6984 6.24906L4.16797 14.7795V15.8307ZM3.6713 17.0807C3.45783 17.0807 3.27894 17.0085 3.13464 16.8641C2.99019 16.7198 2.91797 16.5409 2.91797 16.3274V14.8836C2.91797 14.6805 2.957 14.4868 3.03505 14.3026C3.11297 14.1184 3.22033 13.958 3.35714 13.8211L13.9101 3.27302C14.036 3.15858 14.1751 3.07017 14.3273 3.00781C14.4797 2.94531 14.6394 2.91406 14.8065 2.91406C14.9736 2.91406 15.1354 2.94372 15.2919 3.00302C15.4486 3.06233 15.5873 3.15663 15.708 3.28594L16.7257 4.31635C16.855 4.43705 16.9471 4.57594 17.0021 4.73302C17.0571 4.8901 17.0846 5.04719 17.0846 5.20427C17.0846 5.37191 17.056 5.53184 16.9988 5.68406C16.9416 5.83642 16.8505 5.97559 16.7257 6.10156L6.17755 16.6416C6.04075 16.7784 5.88026 16.8857 5.69609 16.9636C5.51193 17.0417 5.31825 17.0807 5.11505 17.0807H3.6713ZM13.2148 6.78385L12.6984 6.24906L13.7496 7.30031L13.2148 6.78385Z" fill="#333333"/>
</g>
</svg>
