<svg width="26" height="26" viewBox="0 0 26 26" fill="none" xmlns="http://www.w3.org/2000/svg">
<path id="Vector" fill-rule="evenodd" clip-rule="evenodd" d="M0.67496 7.56956C7.7486e-08 8.80266 0 10.2901 0 13.2651V15.2425C0 20.3135 1.54972e-07 22.8492 1.52304 24.4245C3.04609 26 5.49739 26 10.4 26H15.6C20.5026 26 22.954 26 24.4769 24.4245C26 22.8492 26 20.3135 26 15.2425V13.2651C26 10.2901 26 8.80266 25.325 7.56956C24.6501 6.33647 23.417 5.57116 20.9508 4.04056L18.3508 2.42693C15.7438 0.808977 14.4403 0 13 0C11.5597 0 10.2562 0.808977 7.64924 2.42693L5.04924 4.04057C2.58303 5.57116 1.34992 6.33647 0.67496 7.56956ZM9.68059 17.4167C9.24801 17.096 8.63737 17.1868 8.31671 17.6194C7.99607 18.0521 8.08681 18.6627 8.51941 18.9833C9.78354 19.9203 11.3295 20.475 13 20.475C14.6705 20.475 16.2165 19.9203 17.4806 18.9833C17.9132 18.6627 18.004 18.0521 17.6832 17.6194C17.3627 17.1868 16.7521 17.096 16.3194 17.4167C15.3725 18.1185 14.2297 18.525 13 18.525C11.7703 18.525 10.6275 18.1185 9.68059 17.4167Z" fill="currentColor"/>
</svg>
