<svg width="33" height="32" viewBox="0 0 33 32" fill="none" xmlns="http://www.w3.org/2000/svg">
<path fill-rule="evenodd" clip-rule="evenodd" d="M5.23706 4.90381C3.33325 6.80761 3.33325 9.87174 3.33325 16C3.33325 22.1282 3.33325 25.1924 5.23706 27.0961C7.14086 29 10.205 29 16.3333 29C22.4615 29 25.5257 29 27.4294 27.0961C29.3333 25.1924 29.3333 22.1282 29.3333 16C29.3333 9.87174 29.3333 6.80761 27.4294 4.90381C25.5257 3 22.4615 3 16.3333 3C10.205 3 7.14086 3 5.23706 4.90381ZM16.3333 17.3C17.0512 17.3 17.6333 16.718 17.6333 16C17.6333 15.282 17.0512 14.7 16.3333 14.7C15.6153 14.7 15.0333 15.282 15.0333 16C15.0333 16.718 15.6153 17.3 16.3333 17.3ZM12.4333 16C12.4333 16.718 11.8512 17.3 11.1333 17.3C10.4153 17.3 9.83325 16.718 9.83325 16C9.83325 15.282 10.4153 14.7 11.1333 14.7C11.8512 14.7 12.4333 15.282 12.4333 16ZM21.5333 17.3C22.2512 17.3 22.8333 16.718 22.8333 16C22.8333 15.282 22.2512 14.7 21.5333 14.7C20.8153 14.7 20.2333 15.282 20.2333 16C20.2333 16.718 20.8153 17.3 21.5333 17.3Z" fill="#646464"/>
</svg>
