<svg width="33" height="32" viewBox="0 0 33 32" fill="none" xmlns="http://www.w3.org/2000/svg">
<path fill-rule="evenodd" clip-rule="evenodd" d="M10.1583 3.50417C11.8467 3.12896 13.8948 3 16.3333 3C18.7717 3 20.8198 3.12896 22.5081 3.50417C24.2113 3.88266 25.6267 4.5288 26.7156 5.61765C27.8045 6.70651 28.4506 8.12203 28.8291 9.82509C29.2043 11.5134 29.3333 13.5616 29.3333 16C29.3333 18.4384 29.2043 20.4866 28.8291 22.1749C28.4506 23.878 27.8045 25.2934 26.7156 26.3823C25.6267 27.4712 24.2113 28.1173 22.5081 28.4959C20.8198 28.871 18.7717 29 16.3333 29C13.8948 29 11.8467 28.871 10.1583 28.4959C8.45528 28.1173 7.03976 27.4712 5.95091 26.3823C4.86205 25.2934 4.21591 23.878 3.83742 22.1749C3.46221 20.4866 3.33325 18.4384 3.33325 16C3.33325 13.5616 3.46221 11.5134 3.83742 9.82509C4.21591 8.12203 4.86205 6.70651 5.95091 5.61765C7.03976 4.5288 8.45528 3.88266 10.1583 3.50417ZM12.4333 15.35C12.4333 13.5551 13.8883 12.1 15.6833 12.1C17.4782 12.1 18.9333 13.5551 18.9333 15.35C18.9333 17.1449 17.4782 18.6 15.6833 18.6C13.8883 18.6 12.4333 17.1449 12.4333 15.35ZM15.6833 9.5C12.4524 9.5 9.83325 12.1191 9.83325 15.35C9.83325 18.5809 12.4524 21.2 15.6833 21.2C16.8279 21.2 17.8959 20.8712 18.7977 20.303L20.614 22.1192C21.1217 22.6269 21.9448 22.6269 22.4525 22.1192C22.9601 21.6116 22.9601 20.7884 22.4525 20.2808L20.6363 18.4644C21.2045 17.5626 21.5333 16.4946 21.5333 15.35C21.5333 12.1191 18.9141 9.5 15.6833 9.5Z" fill="#646464"/>
</svg>
