<svg width="20" height="20" viewBox="0 0 20 20" fill="none" xmlns="http://www.w3.org/2000/svg">
<mask id="mask0_645_3071" style="mask-type:alpha" maskUnits="userSpaceOnUse" x="0" y="0" width="20" height="20">
<rect width="20" height="20" fill="#D9D9D9"/>
</mask>
<g mask="url(#mask0_645_3071)">
<path d="M8.56579 11.2197L3.23891 13.356C2.95905 13.4681 2.69655 13.4409 2.45141 13.2743C2.20614 13.1078 2.0835 12.8752 2.0835 12.5764V12.1972C2.0835 12.0595 2.11468 11.9284 2.17704 11.8039C2.23954 11.6795 2.32752 11.5777 2.441 11.4985L8.56579 7.20058V3.51787C8.56579 3.12343 8.70627 2.78572 8.98725 2.50475C9.26808 2.22391 9.60565 2.0835 9.99995 2.0835C10.3943 2.0835 10.7319 2.22391 11.0129 2.50475C11.294 2.78572 11.4345 3.12343 11.4345 3.51787V7.20058L17.5593 11.4985C17.6728 11.5777 17.7608 11.6795 17.8233 11.8039C17.8856 11.9284 17.9168 12.0595 17.9168 12.1972V12.5764C17.9168 12.8752 17.7942 13.1078 17.5489 13.2743C17.3038 13.4409 17.0413 13.4681 16.7614 13.356L11.4345 11.2197V14.5241L13.5804 16.0322C13.6713 16.1 13.7424 16.1819 13.7935 16.2779C13.8447 16.374 13.8704 16.4785 13.8704 16.5914V16.9872C13.8704 17.217 13.7785 17.4013 13.5947 17.5402C13.411 17.6791 13.2069 17.7149 12.9825 17.6477L10.0002 16.7468L7.01787 17.6477C6.79343 17.7149 6.58933 17.6791 6.40558 17.5402C6.22183 17.4013 6.12995 17.217 6.12995 16.9872V16.5891C6.12995 16.4786 6.15558 16.3751 6.20683 16.2787C6.25794 16.1823 6.32898 16.1002 6.41995 16.0322L8.56579 14.5241V11.2197Z" fill="url(#paint0_linear_645_3071)"/>
</g>
<defs>
<linearGradient id="paint0_linear_645_3071" x1="1" y1="2" x2="20.5" y2="19.5" gradientUnits="userSpaceOnUse">
<stop stop-color="#E1F6FF"/>
<stop offset="0.516957" stop-color="#A2D6F4"/>
<stop offset="1" stop-color="#0F8DDB"/>
</linearGradient>
</defs>
</svg>
