<svg width="33" height="32" viewBox="0 0 33 32" fill="none" xmlns="http://www.w3.org/2000/svg">
<path fill-rule="evenodd" clip-rule="evenodd" d="M4.00821 10.5696C3.33325 11.8027 3.33325 13.2901 3.33325 16.2651V18.2425C3.33325 23.3135 3.33325 25.8492 4.85629 27.4245C6.37935 29 8.83064 29 13.7333 29H18.9333C23.8358 29 26.2872 29 27.8102 27.4245C29.3333 25.8492 29.3333 23.3135 29.3333 18.2425V16.2651C29.3333 13.2901 29.3333 11.8027 28.6583 10.5696C27.9833 9.33647 26.7503 8.57116 24.2841 7.04056L21.6841 5.42693C19.077 3.80898 17.7735 3 16.3333 3C14.893 3 13.5895 3.80898 10.9825 5.42693L8.38249 7.04057C5.91629 8.57116 4.68317 9.33647 4.00821 10.5696ZM13.0138 20.4167C12.5813 20.096 11.9706 20.1868 11.65 20.6194C11.3293 21.0521 11.4201 21.6627 11.8527 21.9833C13.1168 22.9203 14.6628 23.475 16.3333 23.475C18.0038 23.475 19.5497 22.9203 20.8138 21.9833C21.2465 21.6627 21.3372 21.0521 21.0165 20.6194C20.6959 20.1868 20.0853 20.096 19.6527 20.4167C18.7058 21.1185 17.5629 21.525 16.3333 21.525C15.1036 21.525 13.9608 21.1185 13.0138 20.4167Z" fill="#646464"/>
</svg>
