<svg width="20" height="20" viewBox="0 0 20 20" fill="none" xmlns="http://www.w3.org/2000/svg">
<mask id="mask0_645_3064" style="mask-type:alpha" maskUnits="userSpaceOnUse" x="0" y="0" width="20" height="20">
<rect width="20" height="20" fill="#D9D9D9"/>
</mask>
<g mask="url(#mask0_645_3064)">
<path d="M6.0255 17.0835C5.6112 17.0835 5.25654 16.936 4.96154 16.641C4.66654 16.346 4.51904 15.9913 4.51904 15.577V6.66683C4.51904 6.25252 4.66654 5.89787 4.96154 5.60287C5.25654 5.30787 5.6112 5.16037 6.0255 5.16037H7.75633V3.58995C7.75633 3.17565 7.90383 2.821 8.19883 2.526C8.49383 2.231 8.84849 2.0835 9.26279 2.0835H10.737C11.1513 2.0835 11.5059 2.231 11.8009 2.526C12.0959 2.821 12.2434 3.17565 12.2434 3.58995V5.16037H13.9743C14.3886 5.16037 14.7432 5.30787 15.0382 5.60287C15.3332 5.89787 15.4807 6.25252 15.4807 6.66683V15.577C15.4807 15.9913 15.3332 16.346 15.0382 16.641C14.7432 16.936 14.3886 17.0835 13.9743 17.0835V17.1795C13.9743 17.3837 13.9024 17.5576 13.7586 17.7012C13.615 17.845 13.4411 17.9168 13.237 17.9168C13.0329 17.9168 12.8591 17.845 12.7155 17.7012C12.5718 17.5576 12.4999 17.3837 12.4999 17.1795V17.0835H7.49988V17.1795C7.49988 17.3837 7.428 17.5576 7.28425 17.7012C7.14064 17.845 6.96682 17.9168 6.76279 17.9168C6.55863 17.9168 6.38474 17.845 6.24113 17.7012C6.09738 17.5576 6.0255 17.3837 6.0255 17.1795V17.0835ZM8.38092 7.56433C8.20384 7.56433 8.05543 7.62419 7.93571 7.74391C7.81613 7.86377 7.75633 8.01225 7.75633 8.18933V14.0545C7.75633 14.2316 7.81627 14.3801 7.93613 14.5C8.05599 14.6197 8.20446 14.6795 8.38154 14.6795C8.55877 14.6795 8.70717 14.6197 8.82675 14.5C8.94647 14.3801 9.00633 14.2316 9.00633 14.0545V8.18933C9.00633 8.01225 8.9464 7.86377 8.82654 7.74391C8.70668 7.62419 8.55814 7.56433 8.38092 7.56433ZM11.6182 7.56433C11.441 7.56433 11.2926 7.62419 11.173 7.74391C11.0533 7.86377 10.9934 8.01225 10.9934 8.18933V14.0545C10.9934 14.2316 11.0533 14.3801 11.1732 14.5C11.2931 14.6197 11.4416 14.6795 11.6188 14.6795C11.7959 14.6795 11.9443 14.6197 12.064 14.5C12.1836 14.3801 12.2434 14.2316 12.2434 14.0545V8.18933C12.2434 8.01225 12.1835 7.86377 12.0636 7.74391C11.9438 7.62419 11.7953 7.56433 11.6182 7.56433ZM9.00633 5.16037H10.9934V3.58995C10.9934 3.51509 10.9694 3.45364 10.9213 3.40558C10.8733 3.35752 10.8118 3.3335 10.737 3.3335H9.26279C9.18793 3.3335 9.12647 3.35752 9.07842 3.40558C9.03036 3.45364 9.00633 3.51509 9.00633 3.58995V5.16037Z" fill="url(#paint0_linear_645_3064)"/>
</g>
<defs>
<linearGradient id="paint0_linear_645_3064" x1="3.76892" y1="1.99873" x2="21.5001" y2="12.8509" gradientUnits="userSpaceOnUse">
<stop stop-color="#E1F6FF"/>
<stop offset="0.516957" stop-color="#A2D6F4"/>
<stop offset="1" stop-color="#0F8DDB"/>
</linearGradient>
</defs>
</svg>
