<svg width="20" height="20" viewBox="0 0 20 20" fill="none" xmlns="http://www.w3.org/2000/svg">
<mask id="mask0_497_4535" style="mask-type:alpha" maskUnits="userSpaceOnUse" x="0" y="0" width="20" height="20">
<rect x="20" y="20" width="20" height="20" transform="rotate(-180 20 20)" fill="#D9D9D9"/>
</mask>
<g mask="url(#mask0_497_4535)">
<path d="M9.99955 7.77135C10.1 7.77135 10.1934 7.7874 10.28 7.81948C10.3665 7.85156 10.4488 7.90656 10.5268 7.98448L14.2721 11.7297C14.3873 11.8451 14.4464 11.9902 14.4491 12.1649C14.4518 12.3395 14.3927 12.4872 14.2721 12.608C14.1512 12.7287 14.0048 12.7891 13.8329 12.7891C13.6609 12.7891 13.5146 12.7287 13.3937 12.608L9.99955 9.21365L6.60538 12.608C6.48997 12.7233 6.3449 12.7823 6.17018 12.7851C5.99559 12.7877 5.84788 12.7287 5.72705 12.608C5.60636 12.4872 5.54601 12.3408 5.54601 12.1689C5.54601 11.9969 5.60636 11.8505 5.72705 11.7297L9.47226 7.98448C9.55031 7.90656 9.63261 7.85156 9.71913 7.81948C9.80566 7.7874 9.89913 7.77135 9.99955 7.77135Z" fill="#EEEEEE"/>
</g>
</svg>
