<svg width="20" height="20" viewBox="0 0 20 20" fill="none" xmlns="http://www.w3.org/2000/svg">
<g id="icons / keyboard_arrow_down">
<mask id="mask0_479_4039" style="mask-type:alpha" maskUnits="userSpaceOnUse" x="0" y="0" width="20" height="20">
<rect id="Bounding box" width="20" height="20" fill="#D9D9D9"/>
</mask>
<g mask="url(#mask0_479_4039)">
<path id="keyboard_arrow_down" d="M10.0004 12.2286C9.90003 12.2286 9.80656 12.2126 9.72003 12.1805C9.6335 12.1484 9.55121 12.0934 9.47316 12.0155L5.72795 8.27031C5.61267 8.1549 5.55364 8.00983 5.55087 7.8351C5.54823 7.66052 5.60725 7.51281 5.72795 7.39198C5.84878 7.27128 5.99517 7.21094 6.16712 7.21094C6.33906 7.21094 6.48545 7.27128 6.60628 7.39198L10.0004 10.7864L13.3946 7.39198C13.51 7.2767 13.6551 7.21767 13.8298 7.2149C14.0044 7.21226 14.1521 7.27128 14.2729 7.39198C14.3936 7.51281 14.454 7.6592 14.454 7.83115C14.454 8.00309 14.3936 8.14948 14.2729 8.27031L10.5277 12.0155C10.4497 12.0934 10.3674 12.1484 10.2809 12.1805C10.1943 12.2126 10.1009 12.2286 10.0004 12.2286Z" fill="#EEEEEE"/>
</g>
</g>
</svg>
