<svg width="16" height="16" viewBox="0 0 16 16" fill="none" xmlns="http://www.w3.org/2000/svg">
<mask id="mask0_498_1845" style="mask-type:alpha" maskUnits="userSpaceOnUse" x="0" y="0" width="16" height="16">
<rect width="16" height="16" fill="#D9D9D9"/>
</mask>
<g mask="url(#mask0_498_1845)">
<path d="M7.99977 13.0091C9.304 11.8415 10.3021 10.7216 10.9939 9.64942C11.6858 8.57719 12.0318 7.63808 12.0318 6.83208C12.0318 5.61675 11.6457 4.61764 10.8734 3.83475C10.1012 3.05186 9.14333 2.66041 7.99977 2.66041C6.85622 2.66041 5.89833 3.05186 5.12611 3.83475C4.35388 4.61764 3.96777 5.61675 3.96777 6.83208C3.96777 7.63808 4.31372 8.57719 5.00561 9.64942C5.6975 10.7216 6.69555 11.8415 7.99977 13.0091ZM7.99977 13.9602C7.86988 13.9602 7.74 13.9379 7.61011 13.8931C7.48011 13.8482 7.36255 13.7787 7.25744 13.6847C6.65922 13.1334 6.09938 12.5656 5.57794 11.9814C5.05661 11.3973 4.60344 10.8134 4.21844 10.2296C3.83333 9.6458 3.52861 9.06719 3.30427 8.49375C3.07994 7.92019 2.96777 7.3663 2.96777 6.83208C2.96777 5.29364 3.46538 4.04814 4.46061 3.09558C5.45594 2.14303 6.63566 1.66675 7.99977 1.66675C9.36388 1.66675 10.5436 2.14303 11.5389 3.09558C12.5342 4.04814 13.0318 5.29364 13.0318 6.83208C13.0318 7.3663 12.9196 7.91908 12.6953 8.49042C12.4709 9.06186 12.1673 9.64053 11.7844 10.2264C11.4014 10.8123 10.9493 11.3962 10.4279 11.9782C9.90661 12.5604 9.34677 13.127 8.74844 13.6782C8.64488 13.7722 8.52716 13.8427 8.39527 13.8897C8.2635 13.9367 8.13166 13.9602 7.99977 13.9602ZM8.00094 7.91025C8.33261 7.91025 8.61616 7.79214 8.85161 7.55592C9.08716 7.31969 9.20494 7.03575 9.20494 6.70408C9.20494 6.37241 9.08683 6.0888 8.85061 5.85325C8.61438 5.6178 8.33038 5.50008 7.99861 5.50008C7.66694 5.50008 7.38338 5.61819 7.14794 5.85441C6.91238 6.09064 6.79461 6.37464 6.79461 6.70642C6.79461 7.03808 6.91272 7.32164 7.14894 7.55708C7.38516 7.79253 7.66916 7.91025 8.00094 7.91025Z" fill="#D1D1D1"/>
</g>
</svg>
