<svg width="20" height="20" viewBox="0 0 20 20" fill="none" xmlns="http://www.w3.org/2000/svg">
<mask id="mask0_479_4031" style="mask-type:alpha" maskUnits="userSpaceOnUse" x="0" y="0" width="20" height="20">
<rect width="20" height="20" fill="#D9D9D9"/>
</mask>
<g mask="url(#mask0_479_4031)">
<path d="M10 9.7474C9.19792 9.7474 8.51132 9.46184 7.94021 8.89073C7.36896 8.31948 7.08333 7.63281 7.08333 6.83073C7.08333 6.02865 7.36896 5.34205 7.94021 4.77094C8.51132 4.19969 9.19792 3.91406 10 3.91406C10.8021 3.91406 11.4887 4.19969 12.0598 4.77094C12.631 5.34205 12.9167 6.02865 12.9167 6.83073C12.9167 7.63281 12.631 8.31948 12.0598 8.89073C11.4887 9.46184 10.8021 9.7474 10 9.7474ZM3.75 14.8276V14.2409C3.75 13.8329 3.86083 13.455 4.0825 13.1072C4.30417 12.7594 4.60042 12.492 4.97125 12.3051C5.79486 11.9014 6.62576 11.5985 7.46396 11.3966C8.30215 11.1946 9.1475 11.0936 10 11.0936C10.8525 11.0936 11.6978 11.1946 12.536 11.3966C13.3742 11.5985 14.2051 11.9014 15.0287 12.3051C15.3996 12.492 15.6958 12.7594 15.9175 13.1072C16.1392 13.455 16.25 13.8329 16.25 14.2409V14.8276C16.25 15.179 16.1269 15.4779 15.8806 15.7243C15.6344 15.9705 15.3355 16.0936 14.984 16.0936H5.01604C4.66451 16.0936 4.36562 15.9705 4.11937 15.7243C3.87312 15.4779 3.75 15.179 3.75 14.8276ZM5 14.8436H15V14.2409C15 14.0722 14.9511 13.9159 14.8533 13.7722C14.7556 13.6286 14.6228 13.5114 14.4552 13.4205C13.7372 13.0669 13.0051 12.799 12.259 12.6168C11.5127 12.4347 10.7597 12.3436 10 12.3436C9.24028 12.3436 8.48729 12.4347 7.74104 12.6168C6.99493 12.799 6.26285 13.0669 5.54479 13.4205C5.37715 13.5114 5.24444 13.6286 5.14667 13.7722C5.04889 13.9159 5 14.0722 5 14.2409V14.8436ZM10 8.4974C10.4583 8.4974 10.8507 8.3342 11.1771 8.00781C11.5035 7.68142 11.6667 7.28906 11.6667 6.83073C11.6667 6.3724 11.5035 5.98003 11.1771 5.65365C10.8507 5.32726 10.4583 5.16406 10 5.16406C9.54167 5.16406 9.14931 5.32726 8.82292 5.65365C8.49653 5.98003 8.33333 6.3724 8.33333 6.83073C8.33333 7.28906 8.49653 7.68142 8.82292 8.00781C9.14931 8.3342 9.54167 8.4974 10 8.4974Z" fill="#E3E3E3"/>
</g>
</svg>
