<svg width="80" height="80" viewBox="0 0 80 80" fill="none" xmlns="http://www.w3.org/2000/svg">
<g id="icons / add_a_photo">
<mask id="mask0_428_3576" style="mask-type:alpha" maskUnits="userSpaceOnUse" x="0" y="0" width="80" height="80">
<rect id="Bounding box" width="80" height="80" fill="#D9D9D9"/>
</mask>
<g mask="url(#mask0_428_3576)">
<path id="add_a_photo" d="M11.0258 68.3333C9.34194 68.3333 7.91667 67.75 6.75 66.5833C5.58333 65.4167 5 63.9914 5 62.3075V24.3592C5 22.6753 5.58333 21.25 6.75 20.0833C7.91667 18.9167 9.34194 18.3333 11.0258 18.3333H21.205L25.5642 13.6092C26.1153 13.0114 26.7794 12.5383 27.5567 12.19C28.3333 11.8411 29.1478 11.6667 30 11.6667H43.5258C44.2342 11.6667 44.8278 11.9064 45.3067 12.3858C45.7861 12.8653 46.0258 13.4592 46.0258 14.1675C46.0258 14.8764 45.7861 15.47 45.3067 15.9483C44.8278 16.4272 44.2342 16.6667 43.5258 16.6667H29.5517L23.4358 23.3333H11.0258C10.7264 23.3333 10.4806 23.4294 10.2883 23.6217C10.0961 23.8139 10 24.0597 10 24.3592V62.3075C10 62.607 10.0961 62.8528 10.2883 63.045C10.4806 63.2372 10.7264 63.3333 11.0258 63.3333H62.3075C62.6069 63.3333 62.8528 63.2372 63.045 63.045C63.2372 62.8528 63.3333 62.607 63.3333 62.3075V36.4742C63.3333 35.7658 63.5731 35.1722 64.0525 34.6933C64.5319 34.2139 65.1258 33.9742 65.8342 33.9742C66.5431 33.9742 67.1367 34.2139 67.615 34.6933C68.0939 35.1722 68.3333 35.7658 68.3333 36.4742V62.3075C68.3333 63.9914 67.75 65.4167 66.5833 66.5833C65.4167 67.75 63.9914 68.3333 62.3075 68.3333H11.0258ZM63.3333 16.6667H59.1667C58.4583 16.6667 57.8644 16.4269 57.385 15.9475C56.9061 15.4681 56.6667 14.8742 56.6667 14.1658C56.6667 13.4569 56.9061 12.8633 57.385 12.385C57.8644 11.9061 58.4583 11.6667 59.1667 11.6667H63.3333V7.5C63.3333 6.79167 63.5731 6.19806 64.0525 5.71917C64.5319 5.23972 65.1258 5 65.8342 5C66.5431 5 67.1367 5.23972 67.615 5.71917C68.0939 6.19806 68.3333 6.79167 68.3333 7.5V11.6667H72.5C73.2083 11.6667 73.8019 11.9064 74.2808 12.3858C74.7603 12.8653 75 13.4592 75 14.1675C75 14.8764 74.7603 15.47 74.2808 15.9483C73.8019 16.4272 73.2083 16.6667 72.5 16.6667H68.3333V20.8333C68.3333 21.5417 68.0936 22.1356 67.6142 22.615C67.1347 23.0939 66.5408 23.3333 65.8325 23.3333C65.1236 23.3333 64.53 23.0939 64.0517 22.615C63.5728 22.1356 63.3333 21.5417 63.3333 20.8333V16.6667ZM36.6667 57.0508C40.4917 57.0508 43.7342 55.7208 46.3942 53.0608C49.0542 50.4008 50.3842 47.1583 50.3842 43.3333C50.3842 39.5083 49.0542 36.2658 46.3942 33.6058C43.7342 30.9458 40.4917 29.6158 36.6667 29.6158C32.8417 29.6158 29.5992 30.9458 26.9392 33.6058C24.2792 36.2658 22.9492 39.5083 22.9492 43.3333C22.9492 47.1583 24.2792 50.4008 26.9392 53.0608C29.5992 55.7208 32.8417 57.0508 36.6667 57.0508ZM36.6667 52.0517C34.205 52.0517 32.1367 51.2139 30.4617 49.5383C28.7861 47.8633 27.9483 45.795 27.9483 43.3333C27.9483 40.8717 28.7861 38.8033 30.4617 37.1283C32.1367 35.4528 34.205 34.615 36.6667 34.615C39.1283 34.615 41.1967 35.4528 42.8717 37.1283C44.5472 38.8033 45.385 40.8717 45.385 43.3333C45.385 45.795 44.5472 47.8633 42.8717 49.5383C41.1967 51.2139 39.1283 52.0517 36.6667 52.0517Z" fill="#333333"/>
</g>
</g>
</svg>
