<svg width="12" height="13" viewBox="0 0 12 13" fill="none" xmlns="http://www.w3.org/2000/svg">
<mask id="mask0_719_2674" style="mask-type:alpha" maskUnits="userSpaceOnUse" x="0" y="0" width="12" height="13">
<rect y="0.5" width="12" height="12" fill="#D9D9D9"/>
</mask>
<g mask="url(#mask0_719_2674)">
<path d="M3 10.5C2.725 10.5 2.48958 10.4021 2.29375 10.2063C2.09792 10.0104 2 9.775 2 9.5C2 9.225 2.09792 8.98958 2.29375 8.79375C2.48958 8.59792 2.725 8.5 3 8.5C3.275 8.5 3.51042 8.59792 3.70625 8.79375C3.90208 8.98958 4 9.225 4 9.5C4 9.775 3.90208 10.0104 3.70625 10.2063C3.51042 10.4021 3.275 10.5 3 10.5ZM3 7.5C2.725 7.5 2.48958 7.40208 2.29375 7.20625C2.09792 7.01042 2 6.775 2 6.5C2 6.225 2.09792 5.98958 2.29375 5.79375C2.48958 5.59792 2.725 5.5 3 5.5C3.275 5.5 3.51042 5.59792 3.70625 5.79375C3.90208 5.98958 4 6.225 4 6.5C4 6.775 3.90208 7.01042 3.70625 7.20625C3.51042 7.40208 3.275 7.5 3 7.5ZM3 4.5C2.725 4.5 2.48958 4.40208 2.29375 4.20625C2.09792 4.01042 2 3.775 2 3.5C2 3.225 2.09792 2.98958 2.29375 2.79375C2.48958 2.59792 2.725 2.5 3 2.5C3.275 2.5 3.51042 2.59792 3.70625 2.79375C3.90208 2.98958 4 3.225 4 3.5C4 3.775 3.90208 4.01042 3.70625 4.20625C3.51042 4.40208 3.275 4.5 3 4.5ZM6 4.5C5.725 4.5 5.48958 4.40208 5.29375 4.20625C5.09792 4.01042 5 3.775 5 3.5C5 3.225 5.09792 2.98958 5.29375 2.79375C5.48958 2.59792 5.725 2.5 6 2.5C6.275 2.5 6.51042 2.59792 6.70625 2.79375C6.90208 2.98958 7 3.225 7 3.5C7 3.775 6.90208 4.01042 6.70625 4.20625C6.51042 4.40208 6.275 4.5 6 4.5ZM9 4.5C8.725 4.5 8.48958 4.40208 8.29375 4.20625C8.09792 4.01042 8 3.775 8 3.5C8 3.225 8.09792 2.98958 8.29375 2.79375C8.48958 2.59792 8.725 2.5 9 2.5C9.275 2.5 9.51042 2.59792 9.70625 2.79375C9.90208 2.98958 10 3.225 10 3.5C10 3.775 9.90208 4.01042 9.70625 4.20625C9.51042 4.40208 9.275 4.5 9 4.5ZM6 7.5C5.725 7.5 5.48958 7.40208 5.29375 7.20625C5.09792 7.01042 5 6.775 5 6.5C5 6.225 5.09792 5.98958 5.29375 5.79375C5.48958 5.59792 5.725 5.5 6 5.5C6.275 5.5 6.51042 5.59792 6.70625 5.79375C6.90208 5.98958 7 6.225 7 6.5C7 6.775 6.90208 7.01042 6.70625 7.20625C6.51042 7.40208 6.275 7.5 6 7.5ZM6.5 10V9.175C6.5 9.10833 6.5125 9.04375 6.5375 8.98125C6.5625 8.91875 6.6 8.8625 6.65 8.8125L9.2625 6.2125C9.3375 6.1375 9.42083 6.08333 9.5125 6.05C9.60417 6.01667 9.69583 6 9.7875 6C9.8875 6 9.98333 6.01875 10.075 6.05625C10.1667 6.09375 10.25 6.15 10.325 6.225L10.7875 6.6875C10.8542 6.7625 10.9062 6.84583 10.9438 6.9375C10.9813 7.02917 11 7.12083 11 7.2125C11 7.30417 10.9833 7.39792 10.95 7.49375C10.9167 7.58958 10.8625 7.675 10.7875 7.75L8.1875 10.35C8.1375 10.4 8.08125 10.4375 8.01875 10.4625C7.95625 10.4875 7.89167 10.5 7.825 10.5H7C6.85833 10.5 6.73958 10.4521 6.64375 10.3563C6.54792 10.2604 6.5 10.1417 6.5 10ZM9.7875 7.7L10.25 7.2125L9.7875 6.75L9.3125 7.225L9.7875 7.7Z" fill="white"/>
</g>
</svg>
