<svg width="26" height="26" viewBox="0 0 26 26" fill="none" xmlns="http://www.w3.org/2000/svg">
<path id="Vector" fill-rule="evenodd" clip-rule="evenodd" d="M6.82509 0.504166C8.51341 0.12896 10.5616 0 13 0C15.4384 0 17.4866 0.12896 19.1749 0.504166C20.878 0.882661 22.2934 1.5288 23.3823 2.61765C24.4712 3.70651 25.1173 5.12203 25.4959 6.82509C25.871 8.51341 26 10.5616 26 13C26 15.4384 25.871 17.4866 25.4959 19.1749C25.1173 20.878 24.4712 22.2934 23.3823 23.3823C22.2934 24.4712 20.878 25.1173 19.1749 25.4959C17.4866 25.871 15.4384 26 13 26C10.5616 26 8.51341 25.871 6.82509 25.4959C5.12203 25.1173 3.70651 24.4712 2.61765 23.3823C1.5288 22.2934 0.882661 20.878 0.504166 19.1749C0.12896 17.4866 0 15.4384 0 13C0 10.5616 0.12896 8.51341 0.504166 6.82509C0.882661 5.12203 1.5288 3.70651 2.61765 2.61765C3.70651 1.5288 5.12203 0.882661 6.82509 0.504166ZM9.1 12.35C9.1 10.5551 10.5551 9.1 12.35 9.1C14.1449 9.1 15.6 10.5551 15.6 12.35C15.6 14.1449 14.1449 15.6 12.35 15.6C10.5551 15.6 9.1 14.1449 9.1 12.35ZM12.35 6.5C9.11914 6.5 6.5 9.11914 6.5 12.35C6.5 15.5809 9.11914 18.2 12.35 18.2C13.4946 18.2 14.5626 17.8712 15.4644 17.303L17.2808 19.1192C17.7884 19.6269 18.6116 19.6269 19.1192 19.1192C19.6269 18.6116 19.6269 17.7884 19.1192 17.2808L17.303 15.4644C17.8712 14.5626 18.2 13.4946 18.2 12.35C18.2 9.11914 15.5809 6.5 12.35 6.5Z" fill="currentColor"/>
</svg>
